<svg xmlns="http://www.w3.org/2000/svg" width="16" height="17" viewBox="0 0 16 17" fill="none">
  <path d="M8 15.6C9.02 15.6 9.85 14.77 9.85 13.75H6.15C6.15 14.77 6.98 15.6 8 15.6Z" fill="#1d1f24"/>
  <path d="M13.5 12.7H2.5C2.1 12.7 1.8 12.4 1.8 12C1.8 11.8 1.9 11.6 2.1 11.4C3.1 10.4 3.6 9.2 3.6 7.8V6.2C3.6 3.8 5.3 2 8 1.6V1C8 0.45 8.45 0 9 0C9.55 0 10 0.45 10 1V1.6C12.7 2 14.4 3.8 14.4 6.2V7.8C14.4 9.2 14.9 10.4 15.9 11.4C16.1 11.6 16.2 11.8 16.2 12C16.2 12.4 15.9 12.7 15.5 12.7H13.5Z" stroke="#1d1f24" stroke-width="1.2" fill="none" stroke-linejoin="round"/>
</svg>
