<svg xmlns="http://www.w3.org/2000/svg" width="84" height="73" viewBox="0 0 84 73" fill="none">
  <path d="M37.8164 5.31072L10.1136 17.0307C8.57301 17.6825 8.58897 19.9197 10.1392 20.548L37.9579 31.8269C40.4023 32.818 43.1243 32.818 45.5683 31.8269L73.3874 20.548C74.9372 19.9197 74.9536 17.6825 73.4126 17.0307L45.7103 5.31072C43.1827 4.24148 40.3435 4.24148 37.8164 5.31072Z" fill="#FFBA05"/>
  <path d="M44.2311 37.986V66.1623C44.2311 67.5025 45.5528 68.4202 46.7712 67.9263L77.7698 55.6245C78.4775 55.3377 78.9416 54.6386 78.9416 53.8605V25.6842C78.9416 24.344 77.6198 23.4264 76.4014 23.9202L45.4029 36.222C44.6956 36.5089 44.2311 37.2079 44.2311 37.986Z" fill="#39CAFF"/>
  <path d="M36.9928 39.4399L27.7931 43.9813L26.859 44.443L7.43908 53.9566C6.20806 54.5638 4.63684 53.6465 4.63684 52.2484V25.8026C4.63684 25.2968 4.89052 24.8601 5.23072 24.5311C5.37268 24.3856 5.53354 24.2658 5.7007 24.1709C6.1648 23.8862 6.82672 23.8102 7.38952 24.0378L36.8382 35.9672C38.3351 36.5744 38.4527 38.7189 36.9928 39.4399Z" fill="#DC043B"/>
  <path d="M36.9928 39.4399L27.7931 43.9813L5.23071 24.5311C5.37267 24.3856 5.53353 24.2658 5.70069 24.1709C6.16479 23.8862 6.82671 23.8102 7.38951 24.0378L36.8382 35.9672C38.3351 36.5744 38.4527 38.7189 36.9928 39.4399Z" fill="black" fill-opacity="0.25"/>
</svg>
